<mxfile host="app.diagrams.net" modified="2020-05-28T05:40:01.761Z" agent="5.0 (Windows NT 10.0; Win64; x64) AppleWebKit/537.36 (KHTML, like Gecko) Chrome/81.0.4044.138 Safari/537.36" etag="soGiIIJ0EKTaBBIu7SAD" version="13.1.3" type="github" pages="3">
  <diagram id="ySz0Py1HpDfHeLLja6__" name="version3">
    <mxGraphModel dx="748" dy="584" grid="1" gridSize="10" guides="1" tooltips="1" connect="1" arrows="1" fold="1" page="1" pageScale="1" pageWidth="850" pageHeight="1100" math="0" shadow="0">
      <root>
        <mxCell id="oRHurq6mvN2Bd5AfDysX-0" />
        <mxCell id="oRHurq6mvN2Bd5AfDysX-1" parent="oRHurq6mvN2Bd5AfDysX-0" />
        <mxCell id="oRHurq6mvN2Bd5AfDysX-2" value="" style="rounded=0;html=1;jettySize=auto;orthogonalLoop=1;fontSize=11;endArrow=block;endFill=0;endSize=8;strokeWidth=1;shadow=0;labelBackgroundColor=none;edgeStyle=orthogonalEdgeStyle;" edge="1" parent="oRHurq6mvN2Bd5AfDysX-1" source="oRHurq6mvN2Bd5AfDysX-3" target="oRHurq6mvN2Bd5AfDysX-6">
          <mxGeometry relative="1" as="geometry" />
        </mxCell>
        <mxCell id="oRHurq6mvN2Bd5AfDysX-3" value="Call API" style="rounded=1;whiteSpace=wrap;html=1;fontSize=12;glass=0;strokeWidth=1;shadow=0;fillColor=#d5e8d4;strokeColor=#82b366;" vertex="1" parent="oRHurq6mvN2Bd5AfDysX-1">
          <mxGeometry x="210" y="20" width="120" height="40" as="geometry" />
        </mxCell>
        <mxCell id="oRHurq6mvN2Bd5AfDysX-4" value="Yes" style="rounded=0;html=1;jettySize=auto;orthogonalLoop=1;fontSize=11;endArrow=block;endFill=0;endSize=8;strokeWidth=1;shadow=0;labelBackgroundColor=none;edgeStyle=orthogonalEdgeStyle;" edge="1" parent="oRHurq6mvN2Bd5AfDysX-1" source="oRHurq6mvN2Bd5AfDysX-6" target="oRHurq6mvN2Bd5AfDysX-9">
          <mxGeometry y="20" relative="1" as="geometry">
            <mxPoint as="offset" />
          </mxGeometry>
        </mxCell>
        <mxCell id="oRHurq6mvN2Bd5AfDysX-5" value="No" style="edgeStyle=orthogonalEdgeStyle;rounded=0;html=1;jettySize=auto;orthogonalLoop=1;fontSize=11;endArrow=block;endFill=0;endSize=8;strokeWidth=1;shadow=0;labelBackgroundColor=none;" edge="1" parent="oRHurq6mvN2Bd5AfDysX-1" source="oRHurq6mvN2Bd5AfDysX-6" target="oRHurq6mvN2Bd5AfDysX-7">
          <mxGeometry y="10" relative="1" as="geometry">
            <mxPoint as="offset" />
          </mxGeometry>
        </mxCell>
        <mxCell id="oRHurq6mvN2Bd5AfDysX-21" style="edgeStyle=orthogonalEdgeStyle;rounded=0;orthogonalLoop=1;jettySize=auto;html=1;" edge="1" parent="oRHurq6mvN2Bd5AfDysX-1" source="oRHurq6mvN2Bd5AfDysX-6">
          <mxGeometry relative="1" as="geometry">
            <mxPoint x="270" y="220" as="targetPoint" />
          </mxGeometry>
        </mxCell>
        <mxCell id="oRHurq6mvN2Bd5AfDysX-6" value="顧客ID格式&lt;br&gt;是否正確" style="rhombus;whiteSpace=wrap;html=1;shadow=0;fontFamily=Helvetica;fontSize=12;align=center;strokeWidth=1;spacing=6;spacingTop=-4;" vertex="1" parent="oRHurq6mvN2Bd5AfDysX-1">
          <mxGeometry x="220" y="110" width="100" height="80" as="geometry" />
        </mxCell>
        <mxCell id="oRHurq6mvN2Bd5AfDysX-7" value="Status: 0003&lt;br&gt;異常(顧客ID格式不正確)" style="rounded=1;whiteSpace=wrap;html=1;fontSize=12;glass=0;strokeWidth=1;shadow=0;fillColor=#f8cecc;strokeColor=#b85450;" vertex="1" parent="oRHurq6mvN2Bd5AfDysX-1">
          <mxGeometry x="370" y="130" width="140" height="40" as="geometry" />
        </mxCell>
        <mxCell id="oRHurq6mvN2Bd5AfDysX-8" value="No" style="edgeStyle=orthogonalEdgeStyle;rounded=0;html=1;jettySize=auto;orthogonalLoop=1;fontSize=11;endArrow=block;endFill=0;endSize=8;strokeWidth=1;shadow=0;labelBackgroundColor=none;" edge="1" parent="oRHurq6mvN2Bd5AfDysX-1" source="oRHurq6mvN2Bd5AfDysX-9" target="oRHurq6mvN2Bd5AfDysX-11">
          <mxGeometry y="10" relative="1" as="geometry">
            <mxPoint as="offset" />
          </mxGeometry>
        </mxCell>
        <mxCell id="oRHurq6mvN2Bd5AfDysX-9" value="無發生異常&lt;br&gt;(含連線逾時)" style="rhombus;whiteSpace=wrap;html=1;shadow=0;fontFamily=Helvetica;fontSize=12;align=center;strokeWidth=1;spacing=6;spacingTop=-4;" vertex="1" parent="oRHurq6mvN2Bd5AfDysX-1">
          <mxGeometry x="219" y="230" width="100" height="80" as="geometry" />
        </mxCell>
        <mxCell id="oRHurq6mvN2Bd5AfDysX-10" value="Status: 0000&lt;br&gt;成功回傳推薦排序" style="rounded=1;whiteSpace=wrap;html=1;fontSize=12;glass=0;strokeWidth=1;shadow=0;fillColor=#dae8fc;strokeColor=#6c8ebf;" vertex="1" parent="oRHurq6mvN2Bd5AfDysX-1">
          <mxGeometry x="210" y="480" width="120" height="50" as="geometry" />
        </mxCell>
        <mxCell id="oRHurq6mvN2Bd5AfDysX-11" value="Status: 0003" style="rounded=1;whiteSpace=wrap;html=1;fontSize=12;glass=0;strokeWidth=1;shadow=0;" vertex="1" parent="oRHurq6mvN2Bd5AfDysX-1">
          <mxGeometry x="370" y="250" width="120" height="40" as="geometry" />
        </mxCell>
        <mxCell id="oRHurq6mvN2Bd5AfDysX-12" value="Status: 0002&lt;br&gt;異常(含連線逾時)" style="rounded=1;whiteSpace=wrap;html=1;fontSize=12;glass=0;strokeWidth=1;shadow=0;fillColor=#f8cecc;strokeColor=#b85450;" vertex="1" parent="oRHurq6mvN2Bd5AfDysX-1">
          <mxGeometry x="370" y="250" width="140" height="40" as="geometry" />
        </mxCell>
        <mxCell id="oRHurq6mvN2Bd5AfDysX-13" value="Yes" style="rounded=0;html=1;jettySize=auto;orthogonalLoop=1;fontSize=11;endArrow=block;endFill=0;endSize=8;strokeWidth=1;shadow=0;labelBackgroundColor=none;edgeStyle=orthogonalEdgeStyle;" edge="1" parent="oRHurq6mvN2Bd5AfDysX-1">
          <mxGeometry y="20" relative="1" as="geometry">
            <mxPoint as="offset" />
            <mxPoint x="270" y="310" as="sourcePoint" />
            <mxPoint x="270" y="350" as="targetPoint" />
          </mxGeometry>
        </mxCell>
        <mxCell id="oRHurq6mvN2Bd5AfDysX-14" value="Yes" style="rounded=0;html=1;jettySize=auto;orthogonalLoop=1;fontSize=11;endArrow=block;endFill=0;endSize=8;strokeWidth=1;shadow=0;labelBackgroundColor=none;edgeStyle=orthogonalEdgeStyle;exitX=0.5;exitY=1;exitDx=0;exitDy=0;entryX=0.5;entryY=0;entryDx=0;entryDy=0;" edge="1" parent="oRHurq6mvN2Bd5AfDysX-1" source="oRHurq6mvN2Bd5AfDysX-15" target="oRHurq6mvN2Bd5AfDysX-10">
          <mxGeometry x="-0.1429" y="20" relative="1" as="geometry">
            <mxPoint as="offset" />
            <mxPoint x="270" y="500" as="targetPoint" />
          </mxGeometry>
        </mxCell>
        <mxCell id="oRHurq6mvN2Bd5AfDysX-15" value="模型是否回傳推薦排序" style="rhombus;whiteSpace=wrap;html=1;shadow=0;fontFamily=Helvetica;fontSize=12;align=center;strokeWidth=1;spacing=6;spacingTop=-4;" vertex="1" parent="oRHurq6mvN2Bd5AfDysX-1">
          <mxGeometry x="220" y="350" width="100" height="80" as="geometry" />
        </mxCell>
        <mxCell id="oRHurq6mvN2Bd5AfDysX-16" value="No" style="edgeStyle=orthogonalEdgeStyle;rounded=0;html=1;jettySize=auto;orthogonalLoop=1;fontSize=11;endArrow=block;endFill=0;endSize=8;strokeWidth=1;shadow=0;labelBackgroundColor=none;" edge="1" parent="oRHurq6mvN2Bd5AfDysX-1" source="oRHurq6mvN2Bd5AfDysX-15">
          <mxGeometry y="10" relative="1" as="geometry">
            <mxPoint as="offset" />
            <mxPoint x="370" y="390" as="targetPoint" />
          </mxGeometry>
        </mxCell>
        <mxCell id="oRHurq6mvN2Bd5AfDysX-17" value="Status: 0001&lt;br&gt;模型結果名單&lt;br&gt;無此登入顧客ID" style="rounded=1;whiteSpace=wrap;html=1;fontSize=12;glass=0;strokeWidth=1;shadow=0;fillColor=#dae8fc;strokeColor=#6c8ebf;" vertex="1" parent="oRHurq6mvN2Bd5AfDysX-1">
          <mxGeometry x="370" y="370" width="120" height="40" as="geometry" />
        </mxCell>
        <mxCell id="oRHurq6mvN2Bd5AfDysX-18" value="Status: 0001&lt;br&gt;回傳預設排序" style="rounded=1;whiteSpace=wrap;html=1;fontSize=12;glass=0;strokeWidth=1;shadow=0;fillColor=#f8cecc;strokeColor=#b85450;" vertex="1" parent="oRHurq6mvN2Bd5AfDysX-1">
          <mxGeometry x="370" y="370" width="140" height="40" as="geometry" />
        </mxCell>
        <mxCell id="oRHurq6mvN2Bd5AfDysX-19" value="&lt;ol&gt;&lt;li&gt;0000: 回傳推薦banner排序&amp;nbsp;&lt;/li&gt;&lt;li&gt;0001: 回傳預設banner排序&lt;/li&gt;&lt;li&gt;0002: 異常(連線逾時)&lt;/li&gt;&lt;li&gt;0003: 異常(顧客ID格式不正確)&lt;/li&gt;&lt;/ol&gt;" style="text;strokeColor=none;fillColor=#fff2cc;html=1;whiteSpace=wrap;verticalAlign=middle;overflow=hidden;align=left;labelPosition=center;verticalLabelPosition=middle;strokeWidth=6;spacing=-12;" vertex="1" parent="oRHurq6mvN2Bd5AfDysX-1">
          <mxGeometry x="340" y="437" width="200" height="100" as="geometry" />
        </mxCell>
        <UserObject label="顧客登入行動銀行&lt;br&gt;行銀呼叫MLaaS&lt;br&gt;Input: 顧客ID" placeholders="1" name="Variable" id="oRHurq6mvN2Bd5AfDysX-20">
          <mxCell style="text;html=1;strokeColor=#d6b656;fillColor=#fff2cc;align=center;verticalAlign=middle;whiteSpace=wrap;overflow=hidden;" vertex="1" parent="oRHurq6mvN2Bd5AfDysX-1">
            <mxGeometry x="360" y="20" width="130" height="50" as="geometry" />
          </mxCell>
        </UserObject>
      </root>
    </mxGraphModel>
  </diagram>
  <diagram id="Z0WrZ55IOFAZ8B3S86SQ" name="version2">
    <mxGraphModel dx="748" dy="584" grid="1" gridSize="10" guides="1" tooltips="1" connect="1" arrows="1" fold="1" page="1" pageScale="1" pageWidth="850" pageHeight="1100" math="0" shadow="0">
      <root>
        <mxCell id="QfnjMNIoUR7B6jNinT9_-0" />
        <mxCell id="QfnjMNIoUR7B6jNinT9_-1" parent="QfnjMNIoUR7B6jNinT9_-0" />
        <mxCell id="QfnjMNIoUR7B6jNinT9_-2" value="" style="rounded=0;html=1;jettySize=auto;orthogonalLoop=1;fontSize=11;endArrow=block;endFill=0;endSize=8;strokeWidth=1;shadow=0;labelBackgroundColor=none;edgeStyle=orthogonalEdgeStyle;" parent="QfnjMNIoUR7B6jNinT9_-1" source="QfnjMNIoUR7B6jNinT9_-3" target="QfnjMNIoUR7B6jNinT9_-6" edge="1">
          <mxGeometry relative="1" as="geometry" />
        </mxCell>
        <mxCell id="QfnjMNIoUR7B6jNinT9_-3" value="Call API" style="rounded=1;whiteSpace=wrap;html=1;fontSize=12;glass=0;strokeWidth=1;shadow=0;fillColor=#d5e8d4;strokeColor=#82b366;" parent="QfnjMNIoUR7B6jNinT9_-1" vertex="1">
          <mxGeometry x="210" y="20" width="120" height="40" as="geometry" />
        </mxCell>
        <mxCell id="QfnjMNIoUR7B6jNinT9_-4" value="Yes" style="rounded=0;html=1;jettySize=auto;orthogonalLoop=1;fontSize=11;endArrow=block;endFill=0;endSize=8;strokeWidth=1;shadow=0;labelBackgroundColor=none;edgeStyle=orthogonalEdgeStyle;" parent="QfnjMNIoUR7B6jNinT9_-1" source="QfnjMNIoUR7B6jNinT9_-6" target="QfnjMNIoUR7B6jNinT9_-9" edge="1">
          <mxGeometry y="20" relative="1" as="geometry">
            <mxPoint as="offset" />
          </mxGeometry>
        </mxCell>
        <mxCell id="QfnjMNIoUR7B6jNinT9_-5" value="No" style="edgeStyle=orthogonalEdgeStyle;rounded=0;html=1;jettySize=auto;orthogonalLoop=1;fontSize=11;endArrow=block;endFill=0;endSize=8;strokeWidth=1;shadow=0;labelBackgroundColor=none;" parent="QfnjMNIoUR7B6jNinT9_-1" source="QfnjMNIoUR7B6jNinT9_-6" target="QfnjMNIoUR7B6jNinT9_-7" edge="1">
          <mxGeometry y="10" relative="1" as="geometry">
            <mxPoint as="offset" />
          </mxGeometry>
        </mxCell>
        <mxCell id="QfnjMNIoUR7B6jNinT9_-6" value="顧客ID格式&lt;br&gt;是否正確" style="rhombus;whiteSpace=wrap;html=1;shadow=0;fontFamily=Helvetica;fontSize=12;align=center;strokeWidth=1;spacing=6;spacingTop=-4;" parent="QfnjMNIoUR7B6jNinT9_-1" vertex="1">
          <mxGeometry x="220" y="110" width="100" height="80" as="geometry" />
        </mxCell>
        <mxCell id="QfnjMNIoUR7B6jNinT9_-7" value="Status: 0003&lt;br&gt;異常(顧客ID格式不正確)" style="rounded=1;whiteSpace=wrap;html=1;fontSize=12;glass=0;strokeWidth=1;shadow=0;fillColor=#f8cecc;strokeColor=#b85450;" parent="QfnjMNIoUR7B6jNinT9_-1" vertex="1">
          <mxGeometry x="370" y="130" width="140" height="40" as="geometry" />
        </mxCell>
        <mxCell id="QfnjMNIoUR7B6jNinT9_-8" value="No" style="edgeStyle=orthogonalEdgeStyle;rounded=0;html=1;jettySize=auto;orthogonalLoop=1;fontSize=11;endArrow=block;endFill=0;endSize=8;strokeWidth=1;shadow=0;labelBackgroundColor=none;" parent="QfnjMNIoUR7B6jNinT9_-1" source="QfnjMNIoUR7B6jNinT9_-9" target="QfnjMNIoUR7B6jNinT9_-11" edge="1">
          <mxGeometry y="10" relative="1" as="geometry">
            <mxPoint as="offset" />
          </mxGeometry>
        </mxCell>
        <mxCell id="QfnjMNIoUR7B6jNinT9_-9" value="連線時間&lt;br&gt;小於三秒" style="rhombus;whiteSpace=wrap;html=1;shadow=0;fontFamily=Helvetica;fontSize=12;align=center;strokeWidth=1;spacing=6;spacingTop=-4;" parent="QfnjMNIoUR7B6jNinT9_-1" vertex="1">
          <mxGeometry x="219" y="230" width="100" height="80" as="geometry" />
        </mxCell>
        <mxCell id="QfnjMNIoUR7B6jNinT9_-10" value="Status: 0000&lt;br&gt;成功回傳推薦排序" style="rounded=1;whiteSpace=wrap;html=1;fontSize=12;glass=0;strokeWidth=1;shadow=0;fillColor=#dae8fc;strokeColor=#6c8ebf;" parent="QfnjMNIoUR7B6jNinT9_-1" vertex="1">
          <mxGeometry x="210" y="480" width="120" height="50" as="geometry" />
        </mxCell>
        <mxCell id="QfnjMNIoUR7B6jNinT9_-11" value="Status: 0003" style="rounded=1;whiteSpace=wrap;html=1;fontSize=12;glass=0;strokeWidth=1;shadow=0;" parent="QfnjMNIoUR7B6jNinT9_-1" vertex="1">
          <mxGeometry x="370" y="250" width="120" height="40" as="geometry" />
        </mxCell>
        <mxCell id="QfnjMNIoUR7B6jNinT9_-12" value="Status: 0002&lt;br&gt;異常(連線逾時)" style="rounded=1;whiteSpace=wrap;html=1;fontSize=12;glass=0;strokeWidth=1;shadow=0;fillColor=#f8cecc;strokeColor=#b85450;" parent="QfnjMNIoUR7B6jNinT9_-1" vertex="1">
          <mxGeometry x="370" y="250" width="140" height="40" as="geometry" />
        </mxCell>
        <mxCell id="QfnjMNIoUR7B6jNinT9_-13" value="Yes" style="rounded=0;html=1;jettySize=auto;orthogonalLoop=1;fontSize=11;endArrow=block;endFill=0;endSize=8;strokeWidth=1;shadow=0;labelBackgroundColor=none;edgeStyle=orthogonalEdgeStyle;" parent="QfnjMNIoUR7B6jNinT9_-1" edge="1">
          <mxGeometry y="20" relative="1" as="geometry">
            <mxPoint as="offset" />
            <mxPoint x="270" y="310" as="sourcePoint" />
            <mxPoint x="270" y="350" as="targetPoint" />
          </mxGeometry>
        </mxCell>
        <mxCell id="QfnjMNIoUR7B6jNinT9_-17" value="Yes" style="rounded=0;html=1;jettySize=auto;orthogonalLoop=1;fontSize=11;endArrow=block;endFill=0;endSize=8;strokeWidth=1;shadow=0;labelBackgroundColor=none;edgeStyle=orthogonalEdgeStyle;exitX=0.5;exitY=1;exitDx=0;exitDy=0;entryX=0.5;entryY=0;entryDx=0;entryDy=0;" parent="QfnjMNIoUR7B6jNinT9_-1" source="QfnjMNIoUR7B6jNinT9_-19" target="QfnjMNIoUR7B6jNinT9_-10" edge="1">
          <mxGeometry x="-0.1429" y="20" relative="1" as="geometry">
            <mxPoint as="offset" />
            <mxPoint x="270" y="500" as="targetPoint" />
          </mxGeometry>
        </mxCell>
        <mxCell id="QfnjMNIoUR7B6jNinT9_-19" value="模型是否回傳推薦排序" style="rhombus;whiteSpace=wrap;html=1;shadow=0;fontFamily=Helvetica;fontSize=12;align=center;strokeWidth=1;spacing=6;spacingTop=-4;" parent="QfnjMNIoUR7B6jNinT9_-1" vertex="1">
          <mxGeometry x="220" y="350" width="100" height="80" as="geometry" />
        </mxCell>
        <mxCell id="QfnjMNIoUR7B6jNinT9_-20" value="No" style="edgeStyle=orthogonalEdgeStyle;rounded=0;html=1;jettySize=auto;orthogonalLoop=1;fontSize=11;endArrow=block;endFill=0;endSize=8;strokeWidth=1;shadow=0;labelBackgroundColor=none;" parent="QfnjMNIoUR7B6jNinT9_-1" source="QfnjMNIoUR7B6jNinT9_-19" edge="1">
          <mxGeometry y="10" relative="1" as="geometry">
            <mxPoint as="offset" />
            <mxPoint x="370" y="390" as="targetPoint" />
          </mxGeometry>
        </mxCell>
        <mxCell id="QfnjMNIoUR7B6jNinT9_-21" value="Status: 0001&lt;br&gt;模型結果名單&lt;br&gt;無此登入顧客ID" style="rounded=1;whiteSpace=wrap;html=1;fontSize=12;glass=0;strokeWidth=1;shadow=0;fillColor=#dae8fc;strokeColor=#6c8ebf;" parent="QfnjMNIoUR7B6jNinT9_-1" vertex="1">
          <mxGeometry x="370" y="370" width="120" height="40" as="geometry" />
        </mxCell>
        <mxCell id="QfnjMNIoUR7B6jNinT9_-23" value="Status: 0001&lt;br&gt;回傳預設排序" style="rounded=1;whiteSpace=wrap;html=1;fontSize=12;glass=0;strokeWidth=1;shadow=0;fillColor=#f8cecc;strokeColor=#b85450;" parent="QfnjMNIoUR7B6jNinT9_-1" vertex="1">
          <mxGeometry x="370" y="370" width="140" height="40" as="geometry" />
        </mxCell>
        <mxCell id="QfnjMNIoUR7B6jNinT9_-24" value="&lt;ol&gt;&lt;li&gt;0000: 回傳推薦banner排序&amp;nbsp;&lt;/li&gt;&lt;li&gt;0001: 回傳預設banner排序&lt;/li&gt;&lt;li&gt;0002: 異常(連線逾時)&lt;/li&gt;&lt;li&gt;0003: 異常(顧客ID格式不正確)&lt;/li&gt;&lt;/ol&gt;" style="text;strokeColor=none;fillColor=#fff2cc;html=1;whiteSpace=wrap;verticalAlign=middle;overflow=hidden;align=left;labelPosition=center;verticalLabelPosition=middle;strokeWidth=6;spacing=-12;" parent="QfnjMNIoUR7B6jNinT9_-1" vertex="1">
          <mxGeometry x="340" y="437" width="200" height="100" as="geometry" />
        </mxCell>
        <UserObject label="顧客登入行動銀行&lt;br&gt;行銀呼叫MLaaS&lt;br&gt;Input: 顧客ID" placeholders="1" name="Variable" id="QfnjMNIoUR7B6jNinT9_-25">
          <mxCell style="text;html=1;strokeColor=#d6b656;fillColor=#fff2cc;align=center;verticalAlign=middle;whiteSpace=wrap;overflow=hidden;" parent="QfnjMNIoUR7B6jNinT9_-1" vertex="1">
            <mxGeometry x="360" y="20" width="130" height="50" as="geometry" />
          </mxCell>
        </UserObject>
      </root>
    </mxGraphModel>
  </diagram>
  <diagram id="g0BhbE3FZpr9NHv4j8qi" name="version1">
    <mxGraphModel dx="748" dy="584" grid="1" gridSize="10" guides="1" tooltips="1" connect="1" arrows="1" fold="1" page="1" pageScale="1" pageWidth="850" pageHeight="1100" math="0" shadow="0">
      <root>
        <mxCell id="_gfM8TqM_nm4b76Hwd7x-0" />
        <mxCell id="_gfM8TqM_nm4b76Hwd7x-1" parent="_gfM8TqM_nm4b76Hwd7x-0" />
        <mxCell id="l1eZqsgf5OQW5yRaSjAC-0" value="" style="rounded=0;html=1;jettySize=auto;orthogonalLoop=1;fontSize=11;endArrow=block;endFill=0;endSize=8;strokeWidth=1;shadow=0;labelBackgroundColor=none;edgeStyle=orthogonalEdgeStyle;" edge="1" parent="_gfM8TqM_nm4b76Hwd7x-1" source="l1eZqsgf5OQW5yRaSjAC-1" target="l1eZqsgf5OQW5yRaSjAC-4">
          <mxGeometry relative="1" as="geometry" />
        </mxCell>
        <mxCell id="l1eZqsgf5OQW5yRaSjAC-1" value="Call API" style="rounded=1;whiteSpace=wrap;html=1;fontSize=12;glass=0;strokeWidth=1;shadow=0;fillColor=#d5e8d4;strokeColor=#82b366;" vertex="1" parent="_gfM8TqM_nm4b76Hwd7x-1">
          <mxGeometry x="160" y="80" width="120" height="40" as="geometry" />
        </mxCell>
        <mxCell id="l1eZqsgf5OQW5yRaSjAC-2" value="Yes" style="rounded=0;html=1;jettySize=auto;orthogonalLoop=1;fontSize=11;endArrow=block;endFill=0;endSize=8;strokeWidth=1;shadow=0;labelBackgroundColor=none;edgeStyle=orthogonalEdgeStyle;" edge="1" parent="_gfM8TqM_nm4b76Hwd7x-1" source="l1eZqsgf5OQW5yRaSjAC-4" target="l1eZqsgf5OQW5yRaSjAC-7">
          <mxGeometry y="20" relative="1" as="geometry">
            <mxPoint as="offset" />
          </mxGeometry>
        </mxCell>
        <mxCell id="l1eZqsgf5OQW5yRaSjAC-3" value="No" style="edgeStyle=orthogonalEdgeStyle;rounded=0;html=1;jettySize=auto;orthogonalLoop=1;fontSize=11;endArrow=block;endFill=0;endSize=8;strokeWidth=1;shadow=0;labelBackgroundColor=none;" edge="1" parent="_gfM8TqM_nm4b76Hwd7x-1" source="l1eZqsgf5OQW5yRaSjAC-4" target="l1eZqsgf5OQW5yRaSjAC-5">
          <mxGeometry y="10" relative="1" as="geometry">
            <mxPoint as="offset" />
          </mxGeometry>
        </mxCell>
        <mxCell id="l1eZqsgf5OQW5yRaSjAC-4" value="顧客ID格式&lt;br&gt;是否正確" style="rhombus;whiteSpace=wrap;html=1;shadow=0;fontFamily=Helvetica;fontSize=12;align=center;strokeWidth=1;spacing=6;spacingTop=-4;" vertex="1" parent="_gfM8TqM_nm4b76Hwd7x-1">
          <mxGeometry x="170" y="170" width="100" height="80" as="geometry" />
        </mxCell>
        <mxCell id="l1eZqsgf5OQW5yRaSjAC-5" value="Status: 0004&lt;br&gt;顧客ID格式不正確" style="rounded=1;whiteSpace=wrap;html=1;fontSize=12;glass=0;strokeWidth=1;shadow=0;fillColor=#f8cecc;strokeColor=#b85450;" vertex="1" parent="_gfM8TqM_nm4b76Hwd7x-1">
          <mxGeometry x="320" y="190" width="120" height="40" as="geometry" />
        </mxCell>
        <mxCell id="l1eZqsgf5OQW5yRaSjAC-6" value="No" style="edgeStyle=orthogonalEdgeStyle;rounded=0;html=1;jettySize=auto;orthogonalLoop=1;fontSize=11;endArrow=block;endFill=0;endSize=8;strokeWidth=1;shadow=0;labelBackgroundColor=none;" edge="1" parent="_gfM8TqM_nm4b76Hwd7x-1" source="l1eZqsgf5OQW5yRaSjAC-7" target="l1eZqsgf5OQW5yRaSjAC-9">
          <mxGeometry y="10" relative="1" as="geometry">
            <mxPoint as="offset" />
          </mxGeometry>
        </mxCell>
        <mxCell id="l1eZqsgf5OQW5yRaSjAC-7" value="發查MLaaS&lt;br&gt;是否成功" style="rhombus;whiteSpace=wrap;html=1;shadow=0;fontFamily=Helvetica;fontSize=12;align=center;strokeWidth=1;spacing=6;spacingTop=-4;" vertex="1" parent="_gfM8TqM_nm4b76Hwd7x-1">
          <mxGeometry x="170" y="290" width="100" height="80" as="geometry" />
        </mxCell>
        <mxCell id="l1eZqsgf5OQW5yRaSjAC-8" value="Status: 0000&lt;br&gt;成功回傳推薦排序" style="rounded=1;whiteSpace=wrap;html=1;fontSize=12;glass=0;strokeWidth=1;shadow=0;fillColor=#dae8fc;strokeColor=#6c8ebf;" vertex="1" parent="_gfM8TqM_nm4b76Hwd7x-1">
          <mxGeometry x="160" y="660" width="120" height="50" as="geometry" />
        </mxCell>
        <mxCell id="l1eZqsgf5OQW5yRaSjAC-9" value="Status: 0003" style="rounded=1;whiteSpace=wrap;html=1;fontSize=12;glass=0;strokeWidth=1;shadow=0;" vertex="1" parent="_gfM8TqM_nm4b76Hwd7x-1">
          <mxGeometry x="320" y="310" width="120" height="40" as="geometry" />
        </mxCell>
        <mxCell id="l1eZqsgf5OQW5yRaSjAC-10" value="Status: 0003&lt;br&gt;發查MLaaS失敗" style="rounded=1;whiteSpace=wrap;html=1;fontSize=12;glass=0;strokeWidth=1;shadow=0;fillColor=#f8cecc;strokeColor=#b85450;" vertex="1" parent="_gfM8TqM_nm4b76Hwd7x-1">
          <mxGeometry x="320" y="310" width="120" height="40" as="geometry" />
        </mxCell>
        <mxCell id="l1eZqsgf5OQW5yRaSjAC-11" value="Yes" style="rounded=0;html=1;jettySize=auto;orthogonalLoop=1;fontSize=11;endArrow=block;endFill=0;endSize=8;strokeWidth=1;shadow=0;labelBackgroundColor=none;edgeStyle=orthogonalEdgeStyle;" edge="1" parent="_gfM8TqM_nm4b76Hwd7x-1" target="l1eZqsgf5OQW5yRaSjAC-12">
          <mxGeometry y="20" relative="1" as="geometry">
            <mxPoint as="offset" />
            <mxPoint x="220" y="370" as="sourcePoint" />
          </mxGeometry>
        </mxCell>
        <mxCell id="l1eZqsgf5OQW5yRaSjAC-12" value="MLaaS連線&lt;br&gt;是否及時" style="rhombus;whiteSpace=wrap;html=1;shadow=0;fontFamily=Helvetica;fontSize=12;align=center;strokeWidth=1;spacing=6;spacingTop=-4;" vertex="1" parent="_gfM8TqM_nm4b76Hwd7x-1">
          <mxGeometry x="170" y="410" width="100" height="80" as="geometry" />
        </mxCell>
        <mxCell id="l1eZqsgf5OQW5yRaSjAC-13" value="No" style="edgeStyle=orthogonalEdgeStyle;rounded=0;html=1;jettySize=auto;orthogonalLoop=1;fontSize=11;endArrow=block;endFill=0;endSize=8;strokeWidth=1;shadow=0;labelBackgroundColor=none;" edge="1" parent="_gfM8TqM_nm4b76Hwd7x-1" source="l1eZqsgf5OQW5yRaSjAC-12">
          <mxGeometry y="10" relative="1" as="geometry">
            <mxPoint as="offset" />
            <mxPoint x="320" y="450" as="targetPoint" />
          </mxGeometry>
        </mxCell>
        <mxCell id="l1eZqsgf5OQW5yRaSjAC-14" value="Status: 0002&lt;br&gt;MLaaS連線逾時" style="rounded=1;whiteSpace=wrap;html=1;fontSize=12;glass=0;strokeWidth=1;shadow=0;" vertex="1" parent="_gfM8TqM_nm4b76Hwd7x-1">
          <mxGeometry x="320" y="430" width="120" height="40" as="geometry" />
        </mxCell>
        <mxCell id="l1eZqsgf5OQW5yRaSjAC-15" value="Yes" style="rounded=0;html=1;jettySize=auto;orthogonalLoop=1;fontSize=11;endArrow=block;endFill=0;endSize=8;strokeWidth=1;shadow=0;labelBackgroundColor=none;edgeStyle=orthogonalEdgeStyle;exitX=0.5;exitY=1;exitDx=0;exitDy=0;entryX=0.5;entryY=0;entryDx=0;entryDy=0;" edge="1" parent="_gfM8TqM_nm4b76Hwd7x-1" source="l1eZqsgf5OQW5yRaSjAC-17" target="l1eZqsgf5OQW5yRaSjAC-8">
          <mxGeometry x="-0.1429" y="20" relative="1" as="geometry">
            <mxPoint as="offset" />
            <mxPoint x="220" y="680" as="targetPoint" />
          </mxGeometry>
        </mxCell>
        <mxCell id="l1eZqsgf5OQW5yRaSjAC-16" value="Yes" style="rounded=0;html=1;jettySize=auto;orthogonalLoop=1;fontSize=11;endArrow=block;endFill=0;endSize=8;strokeWidth=1;shadow=0;labelBackgroundColor=none;edgeStyle=orthogonalEdgeStyle;" edge="1" parent="_gfM8TqM_nm4b76Hwd7x-1" target="l1eZqsgf5OQW5yRaSjAC-17">
          <mxGeometry y="20" relative="1" as="geometry">
            <mxPoint as="offset" />
            <mxPoint x="220" y="490" as="sourcePoint" />
          </mxGeometry>
        </mxCell>
        <mxCell id="l1eZqsgf5OQW5yRaSjAC-17" value="模型結果名單中是否有此顧客" style="rhombus;whiteSpace=wrap;html=1;shadow=0;fontFamily=Helvetica;fontSize=12;align=center;strokeWidth=1;spacing=6;spacingTop=-4;" vertex="1" parent="_gfM8TqM_nm4b76Hwd7x-1">
          <mxGeometry x="170" y="530" width="100" height="80" as="geometry" />
        </mxCell>
        <mxCell id="l1eZqsgf5OQW5yRaSjAC-18" value="No" style="edgeStyle=orthogonalEdgeStyle;rounded=0;html=1;jettySize=auto;orthogonalLoop=1;fontSize=11;endArrow=block;endFill=0;endSize=8;strokeWidth=1;shadow=0;labelBackgroundColor=none;" edge="1" parent="_gfM8TqM_nm4b76Hwd7x-1" source="l1eZqsgf5OQW5yRaSjAC-17">
          <mxGeometry y="10" relative="1" as="geometry">
            <mxPoint as="offset" />
            <mxPoint x="320" y="570" as="targetPoint" />
          </mxGeometry>
        </mxCell>
        <mxCell id="l1eZqsgf5OQW5yRaSjAC-19" value="Status: 0001&lt;br&gt;模型結果名單&lt;br&gt;無此登入顧客ID" style="rounded=1;whiteSpace=wrap;html=1;fontSize=12;glass=0;strokeWidth=1;shadow=0;fillColor=#dae8fc;strokeColor=#6c8ebf;" vertex="1" parent="_gfM8TqM_nm4b76Hwd7x-1">
          <mxGeometry x="320" y="550" width="120" height="40" as="geometry" />
        </mxCell>
        <mxCell id="l1eZqsgf5OQW5yRaSjAC-20" value="Status: 0002&lt;br&gt;MLaaS連線逾時" style="rounded=1;whiteSpace=wrap;html=1;fontSize=12;glass=0;strokeWidth=1;shadow=0;fillColor=#f8cecc;strokeColor=#b85450;" vertex="1" parent="_gfM8TqM_nm4b76Hwd7x-1">
          <mxGeometry x="320" y="430" width="120" height="40" as="geometry" />
        </mxCell>
        <mxCell id="l1eZqsgf5OQW5yRaSjAC-21" value="Status: 0001&lt;br&gt;模型結果名單&lt;br&gt;無此登入顧客ID" style="rounded=1;whiteSpace=wrap;html=1;fontSize=12;glass=0;strokeWidth=1;shadow=0;fillColor=#f8cecc;strokeColor=#b85450;" vertex="1" parent="_gfM8TqM_nm4b76Hwd7x-1">
          <mxGeometry x="320" y="550" width="120" height="40" as="geometry" />
        </mxCell>
        <mxCell id="l1eZqsgf5OQW5yRaSjAC-22" value="&lt;ol&gt;&lt;li&gt;0000: 回傳推薦banner排序&amp;nbsp;&lt;/li&gt;&lt;li&gt;0001: 回傳預設banner排序&lt;/li&gt;&lt;li&gt;0002: MLaaS連線逾時&lt;/li&gt;&lt;li&gt;0003: 發查MLaaS失敗&lt;/li&gt;&lt;li&gt;0004: 顧客ID格式不正確&lt;/li&gt;&lt;/ol&gt;" style="text;strokeColor=none;fillColor=#fff2cc;html=1;whiteSpace=wrap;verticalAlign=middle;overflow=hidden;align=left;labelPosition=center;verticalLabelPosition=middle;strokeWidth=6;spacing=-12;" vertex="1" parent="_gfM8TqM_nm4b76Hwd7x-1">
          <mxGeometry x="290" y="610" width="200" height="100" as="geometry" />
        </mxCell>
        <UserObject label="顧客登入行動銀行&lt;br&gt;行銀呼叫MLaaS&lt;br&gt;Input: 顧客ID" placeholders="1" name="Variable" id="l1eZqsgf5OQW5yRaSjAC-23">
          <mxCell style="text;html=1;strokeColor=#d6b656;fillColor=#fff2cc;align=center;verticalAlign=middle;whiteSpace=wrap;overflow=hidden;" vertex="1" parent="_gfM8TqM_nm4b76Hwd7x-1">
            <mxGeometry x="310" y="80" width="130" height="50" as="geometry" />
          </mxCell>
        </UserObject>
      </root>
    </mxGraphModel>
  </diagram>
</mxfile>
